<?xml version="1.0" encoding="UTF-8" standalone="no"?>
<!-- Created with Inkscape (http://www.inkscape.org/) -->

<svg
   xmlns:dc="http://purl.org/dc/elements/1.1/"
   xmlns:cc="http://creativecommons.org/ns#"
   xmlns:rdf="http://www.w3.org/1999/02/22-rdf-syntax-ns#"
   xmlns:svg="http://www.w3.org/2000/svg"
   xmlns="http://www.w3.org/2000/svg"
   xmlns:xlink="http://www.w3.org/1999/xlink"
   xmlns:sodipodi="http://sodipodi.sourceforge.net/DTD/sodipodi-0.dtd"
   xmlns:inkscape="http://www.inkscape.org/namespaces/inkscape"
   width="650"
   height="820"
   viewBox="0 0 609.37501 768.74999"
   id="vs_root"
   version="1.1"
   inkscape:version="0.92.3 (2405546, 2018-03-11)"
   sodipodi:docname="vs-mobile.svg">
  <defs
     id="defs4458" />
  <sodipodi:namedview
     id="base"
     pagecolor="#ffffff"
     bordercolor="#666666"
     borderopacity="1.0"
     inkscape:pageopacity="0.0"
     inkscape:pageshadow="2"
     inkscape:zoom="0.7"
     inkscape:cx="-813.2063"
     inkscape:cy="399.42669"
     inkscape:document-units="px"
     inkscape:current-layer="layer1-1"
     showgrid="false"
     inkscape:window-width="1920"
     inkscape:window-height="1050"
     inkscape:window-x="1366"
     inkscape:window-y="0"
     inkscape:window-maximized="1"
     units="px"
     inkscape:snap-global="false"
     showguides="true"
     inkscape:guide-bbox="true" />
  <metadata
     id="metadata4461">
    <rdf:RDF>
      <cc:Work
         rdf:about="">
        <dc:format>image/svg+xml</dc:format>
        <dc:type
           rdf:resource="http://purl.org/dc/dcmitype/StillImage" />
        <dc:title />
      </cc:Work>
    </rdf:RDF>
  </metadata>
  <g
     inkscape:label="Layer 1"
     inkscape:groupmode="layer"
     id="layer1"
     transform="translate(0,-283.61224)">
    <image
       sodipodi:absref="/home/zdw/projects/playoff-guide/assets/logos/ATL_logo.png"
       xlink:href="assets/logos/ATL_logo.png"
       width="375"
       height="375"
       preserveAspectRatio="none"
       id="vs_winner"
       x="-23.214247"
       y="255.48724" />
    <g
       aria-label="4"
       style="font-style:normal;font-variant:normal;font-weight:normal;font-stretch:normal;font-size:90px;line-height:0%;font-family:'ProFont for Powerline';-inkscape-font-specification:'ProFont for Powerline, Normal';font-variant-ligatures:normal;font-variant-caps:normal;font-variant-numeric:normal;font-feature-settings:normal;text-align:start;letter-spacing:0px;word-spacing:0px;writing-mode:lr-tb;text-anchor:start;fill:#000000;fill-opacity:1;stroke:none;stroke-width:1px;stroke-linecap:butt;stroke-linejoin:miter;stroke-opacity:1"
       id="text5065"
       transform="matrix(2.4693875,0,0,2.4693875,-65.174325,-1934.4201)">
      <path
         d="m 208.03571,1025.5431 h -22.5 v -7.5 h 7.5 v -7.5 h -22.5 v -12.67501 l 24.825,-24.825 h 5.175 v 30.00001 h 7.5 v 7.5 h -7.5 v 7.5 h 7.5 z m -15,-22.5 v -17.32501 l -15,15.00001 v 2.325 z"
         style="font-style:normal;font-variant:normal;font-weight:normal;font-stretch:normal;font-size:90px;line-height:1.25;font-family:'ProFont for Powerline';-inkscape-font-specification:'ProFont for Powerline, Normal';font-variant-ligatures:normal;font-variant-caps:normal;font-variant-numeric:normal;font-feature-settings:normal;text-align:start;writing-mode:lr-tb;text-anchor:start"
         id="path14001"
         inkscape:connector-curvature="0" />
    </g>
    <g
       aria-label=":"
       style="font-style:normal;font-variant:normal;font-weight:normal;font-stretch:normal;font-size:90px;line-height:1.25;font-family:'ProFont for Powerline';-inkscape-font-specification:'ProFont for Powerline, Normal';font-variant-ligatures:normal;font-variant-caps:normal;font-variant-numeric:normal;font-feature-settings:normal;text-align:start;letter-spacing:0px;word-spacing:0px;writing-mode:lr-tb;text-anchor:start;fill:#000000;fill-opacity:1;stroke:none;stroke-width:0.9375"
       id="text13981"
       transform="rotate(-90,249.33699,846.38457)">
      <path
         d="m 454.82141,988.04303 q 0,3.075 -2.25,5.325 -2.175,2.175 -5.25,2.175 -3.075,0 -5.325,-2.175 -2.175,-2.25 -2.175,-5.325 0,-3.075 2.175,-5.25 2.25,-2.25 5.325,-2.25 3.075,0 5.25,2.25 2.25,2.175 2.25,5.25 z m 0,22.49997 q 0,3.075 -2.25,5.325 -2.175,2.175 -5.25,2.175 -3.075,0 -5.325,-2.175 -2.175,-2.25 -2.175,-5.325 0,-3.075 2.175,-5.25 2.25,-2.25 5.325,-2.25 3.075,0 5.25,2.25 2.25,2.175 2.25,5.25 z"
         style="font-style:normal;font-variant:normal;font-weight:normal;font-stretch:normal;font-size:90px;font-family:'ProFont for Powerline';-inkscape-font-specification:'ProFont for Powerline, Normal';font-variant-ligatures:normal;font-variant-caps:normal;font-variant-numeric:normal;font-feature-settings:normal;text-align:start;writing-mode:lr-tb;text-anchor:start;stroke-width:0.9375"
         id="path13998"
         inkscape:connector-curvature="0" />
    </g>
  </g>
  <g
     inkscape:label="Layer 1"
     inkscape:groupmode="layer"
     id="layer1-1"
     transform="translate(-7.8571671,-259.32653)">
    <image
       sodipodi:absref="/home/zdw/projects/playoff-guide/assets/logos/ATL_logo.png"
       xlink:href="assets/logos/ATL_logo.png"
       y="638.34448"
       x="81.071487"
       id="vs_loser"
       preserveAspectRatio="none"
       height="187.5"
       width="187.5" />
    <g
       aria-label="?"
       style="font-style:normal;font-variant:normal;font-weight:normal;font-stretch:normal;font-size:121.2244873px;line-height:0%;font-family:'ProFont for Powerline';-inkscape-font-specification:'ProFont for Powerline, Normal';font-variant-ligatures:normal;font-variant-caps:normal;font-variant-numeric:normal;font-feature-settings:normal;text-align:start;letter-spacing:0px;word-spacing:0px;writing-mode:lr-tb;text-anchor:start;fill:#000000;fill-opacity:1;stroke:none;stroke-width:1.34693873px;stroke-linecap:butt;stroke-linejoin:miter;stroke-opacity:1"
       id="point_q"
       transform="matrix(1.0156249,0,0,1.0158133,-371.69023,-135.46695)">
      <circle
         style="fill:#ffffff;fill-opacity:1;stroke:#656565;stroke-width:0.93749994;stroke-miterlimit:4;stroke-dasharray:none;stroke-opacity:0.57254902"
         id="circle_q"
         cx="901.79999"
         cy="963.63434"
         r="54.910721" />
      <path
         d="m 923.07907,948.86741 q 0,4.29763 -1.89096,7.90764 l -17.96408,17.87813 h -5.93073 v -5.93073 l 16.58885,-16.67479 q 0.60166,-1.28929 0.60166,-3.18025 0,-3.52405 -2.57857,-6.01667 -2.49262,-2.57859 -6.01668,-2.57859 h -8.59526 q -3.52405,0 -6.10263,2.57859 -2.49262,2.49262 -2.49262,6.01667 h -8.59526 q 0,-7.04811 5.0712,-12.11931 5.07121,-5.0712 12.11931,-5.0712 h 8.59526 q 7.04811,0 12.11931,5.0712 5.0712,4.98525 5.0712,12.11931 z m -17.19051,38.67867 q 0,1.80498 -1.28929,3.09426 -1.20334,1.2034 -3.00834,1.2034 -1.805,0 -3.09429,-1.2034 -1.20334,-1.28928 -1.20334,-3.09426 0,-1.80502 1.20334,-3.00836 1.28929,-1.28928 3.09429,-1.28928 1.805,0 3.00834,1.28928 1.28929,1.20334 1.28929,3.00836 z"
         style="font-style:normal;font-variant:normal;font-weight:normal;font-stretch:normal;font-size:121.2244873px;line-height:1.25;font-family:'ProFont for Powerline';-inkscape-font-specification:'ProFont for Powerline, Normal';font-variant-ligatures:normal;font-variant-caps:normal;font-variant-numeric:normal;font-feature-settings:normal;text-align:start;writing-mode:lr-tb;text-anchor:start;fill:#000000;stroke-width:1.14603412px"
         id="path_q"
         inkscape:connector-curvature="0" />
    </g>
    <g
       aria-label="0"
       style="font-style:normal;font-variant:normal;font-weight:normal;font-stretch:normal;font-size:90px;line-height:0%;font-family:'ProFont for Powerline';-inkscape-font-specification:'ProFont for Powerline, Normal';font-variant-ligatures:normal;font-variant-caps:normal;font-variant-numeric:normal;font-feature-settings:normal;text-align:start;letter-spacing:0px;word-spacing:0px;writing-mode:lr-tb;text-anchor:start;fill:#000000;fill-opacity:1;stroke:none;stroke-width:1px;stroke-linecap:butt;stroke-linejoin:miter;stroke-opacity:1"
       id="point_0"
       transform="matrix(1.015787,0,0,1.0157189,-289.83331,-264.65495)">
      <circle
         style="fill:#ffffff;fill-opacity:1;stroke:#656565;stroke-width:0.93749994;stroke-miterlimit:4;stroke-dasharray:none;stroke-opacity:0.57254902"
         id="circle_0"
         cx="821.07135"
         cy="967.80505"
         r="54.910721" />
      <path
         d="m 839.95675,980.87929 q 0,6.15 -4.425,10.575 -4.425,4.425 -10.575,4.425 h -7.5 q -6.15,0 -10.575,-4.425 -4.425,-4.425 -4.425,-10.575 v -22.5 q 0,-6.15 4.425,-10.575 4.425,-4.425 10.575,-4.425 h 7.5 q 6.15,0 10.575,4.425 4.425,4.425 4.425,10.575 z m -8.625,-26.55 q -2.25,-3.45 -6.375,-3.45 h -7.5 q -3.075,0 -5.325,2.25 -2.175,2.175 -2.175,5.25 v 17.325 z m 1.125,26.55 v -17.175 l -21.225,21.225 q 2.25,3.45 6.225,3.45 h 7.5 q 3.075,0 5.25,-2.175 2.25,-2.25 2.25,-5.325 z"
         style="font-style:normal;font-variant:normal;font-weight:normal;font-stretch:normal;font-size:90px;line-height:1.25;font-family:'ProFont for Powerline';-inkscape-font-specification:'ProFont for Powerline, Normal';font-variant-ligatures:normal;font-variant-caps:normal;font-variant-numeric:normal;font-feature-settings:normal;text-align:start;writing-mode:lr-tb;text-anchor:start;fill:#000000"
         id="path_0"
         inkscape:connector-curvature="0" />
    </g>
    <g
       aria-label="1"
       style="font-style:normal;font-variant:normal;font-weight:normal;font-stretch:normal;font-size:90px;line-height:0%;font-family:'ProFont for Powerline';-inkscape-font-specification:'ProFont for Powerline, Normal';font-variant-ligatures:normal;font-variant-caps:normal;font-variant-numeric:normal;font-feature-settings:normal;text-align:start;letter-spacing:0px;word-spacing:0px;writing-mode:lr-tb;text-anchor:start;fill:#000000;fill-opacity:1;stroke:none;stroke-width:1px;stroke-linecap:butt;stroke-linejoin:miter;stroke-opacity:1"
       id="point_1"
       transform="matrix(1.0157185,0,0,1.015787,-346.33564,-18.8316)">
      <circle
         style="fill:#ffffff;fill-opacity:1;stroke:#656565;stroke-width:0.9375;stroke-miterlimit:4;stroke-dasharray:none;stroke-opacity:0.57254902"
         id="circle_1"
         cx="744.73218"
         cy="967.80847"
         r="54.910721" />
      <path
         d="m 766.1651,993.24244 h -37.5 v -7.5 h 15 v -30 h -11.25 v -7.5 h 3.75 q 3.075,0 5.25,-2.175 2.25,-2.25 2.25,-5.325 h 7.5 v 45 h 15 z"
         style="font-style:normal;font-variant:normal;font-weight:normal;font-stretch:normal;font-size:90px;line-height:1.25;font-family:'ProFont for Powerline';-inkscape-font-specification:'ProFont for Powerline, Normal';font-variant-ligatures:normal;font-variant-caps:normal;font-variant-numeric:normal;font-feature-settings:normal;text-align:start;writing-mode:lr-tb;text-anchor:start;fill:#000000"
         id="path_1"
         inkscape:connector-curvature="0" />
    </g>
    <g
       aria-label="2"
       style="font-style:normal;font-variant:normal;font-weight:normal;font-stretch:normal;font-size:90px;line-height:0%;font-family:'ProFont for Powerline';-inkscape-font-specification:'ProFont for Powerline, Normal';font-variant-ligatures:normal;font-variant-caps:normal;font-variant-numeric:normal;font-feature-settings:normal;text-align:start;letter-spacing:0px;word-spacing:0px;writing-mode:lr-tb;text-anchor:start;fill:#000000;fill-opacity:1;stroke:none;stroke-width:1px;stroke-linecap:butt;stroke-linejoin:miter;stroke-opacity:1"
       id="point_2"
       transform="matrix(1.0157185,0,0,1.015787,-275.59808,-139.05731)">
      <circle
         style="fill:#ffffff;fill-opacity:1;stroke:#656565;stroke-width:0.9375;stroke-miterlimit:4;stroke-dasharray:none;stroke-opacity:0.57254902"
         id="circle_2"
         cx="675.08929"
         cy="965.13013"
         r="54.910721" />
      <path
         d="m 694.99008,991.94474 h -37.5 v -5.175 l 29.475,-29.55 q 0.525,-1.125 0.525,-2.775 0,-3.075 -2.25,-5.25 -2.175,-2.25 -5.25,-2.25 h -7.5 q -3.075,0 -5.325,2.25 -2.175,2.175 -2.175,5.25 h -7.5 q 0,-6.15 4.425,-10.575 4.425,-4.425 10.575,-4.425 h 7.5 q 6.15,0 10.575,4.425 4.425,4.35 4.425,10.575 0,3.75 -1.65,6.9 l -23.175,23.1 h 24.825 z"
         style="font-style:normal;font-variant:normal;font-weight:normal;font-stretch:normal;font-size:90px;line-height:1.25;font-family:'ProFont for Powerline';-inkscape-font-specification:'ProFont for Powerline, Normal';font-variant-ligatures:normal;font-variant-caps:normal;font-variant-numeric:normal;font-feature-settings:normal;text-align:start;writing-mode:lr-tb;text-anchor:start;fill:#000000"
         id="path_2"
         inkscape:connector-curvature="0" />
    </g>
    <g
       aria-label="3"
       style="font-style:normal;font-variant:normal;font-weight:normal;font-stretch:normal;font-size:90px;line-height:0%;font-family:'ProFont for Powerline';-inkscape-font-specification:'ProFont for Powerline, Normal';font-variant-ligatures:normal;font-variant-caps:normal;font-variant-numeric:normal;font-feature-settings:normal;text-align:start;letter-spacing:0px;word-spacing:0px;writing-mode:lr-tb;text-anchor:start;fill:#000000;fill-opacity:1;stroke:none;stroke-width:1px;stroke-linecap:butt;stroke-linejoin:miter;stroke-opacity:1"
       id="point_3"
       transform="matrix(1.0157185,0,0,1.015787,-188.53648,-260.64319)">
      <circle
         style="fill:#ffffff;fill-opacity:1;stroke:#656565;stroke-width:0.9375;stroke-miterlimit:4;stroke-dasharray:none;stroke-opacity:0.57254902"
         id="circle_3"
         cx="589.375"
         cy="963.79077"
         r="54.910721" />
      <path
         d="m 579.22796,975.62633 q 0,3.075 2.175,5.325 2.25,2.175 5.325,2.175 h 7.5 q 3.075,0 5.25,-2.175 2.25,-2.25 2.25,-5.325 0,-3.075 -2.25,-5.25 -2.175,-2.25 -5.25,-2.25 h -7.5 v -7.5 h 7.5 q 3.075,0 5.25,-2.175 2.25,-2.25 2.25,-5.325 0,-3.075 -2.25,-5.25 -2.175,-2.25 -5.25,-2.25 h -7.5 q -3.075,0 -5.325,2.25 -2.175,2.175 -2.175,5.25 h -7.5 q 0,-6.225 4.35,-10.575 4.425,-4.425 10.65,-4.425 h 7.5 q 6.225,0 10.575,4.425 4.425,4.35 4.425,10.575 0,6.75 -6.375,11.25 6.375,4.5 6.375,11.25 0,6.225 -4.425,10.65 -4.35,4.35 -10.575,4.35 h -7.5 q -6.225,0 -10.65,-4.35 -4.35,-4.425 -4.35,-10.65 z"
         style="font-style:normal;font-variant:normal;font-weight:normal;font-stretch:normal;font-size:90px;line-height:1.25;font-family:'ProFont for Powerline';-inkscape-font-specification:'ProFont for Powerline, Normal';font-variant-ligatures:normal;font-variant-caps:normal;font-variant-numeric:normal;font-feature-settings:normal;text-align:start;writing-mode:lr-tb;text-anchor:start;fill:#000000"
         id="path_3"
         inkscape:connector-curvature="0" />
    </g>
  </g>
</svg>
