<?xml version="1.0" encoding="UTF-8" standalone="no"?>
<!-- Created with Inkscape (http://www.inkscape.org/) -->

<svg
   xmlns:dc="http://purl.org/dc/elements/1.1/"
   xmlns:cc="http://creativecommons.org/ns#"
   xmlns:rdf="http://www.w3.org/1999/02/22-rdf-syntax-ns#"
   xmlns:svg="http://www.w3.org/2000/svg"
   xmlns="http://www.w3.org/2000/svg"
   xmlns:sodipodi="http://sodipodi.sourceforge.net/DTD/sodipodi-0.dtd"
   xmlns:inkscape="http://www.inkscape.org/namespaces/inkscape"
   width="40"
   height="40"
   viewBox="0 0 10.583333 10.583334"
   version="1.1"
   id="svg5213"
   sodipodi:docname="score_q.svg"
   inkscape:version="0.92.3 (2405546, 2018-03-11)">
  <defs
     id="defs5207" />
  <sodipodi:namedview
     id="base"
     pagecolor="#ffffff"
     bordercolor="#666666"
     borderopacity="1.0"
     inkscape:pageopacity="0.0"
     inkscape:pageshadow="2"
     inkscape:zoom="11.2"
     inkscape:cx="13.678091"
     inkscape:cy="30.372011"
     inkscape:document-units="mm"
     inkscape:current-layer="layer1"
     showgrid="false"
     units="px"
     inkscape:window-width="1920"
     inkscape:window-height="1050"
     inkscape:window-x="1366"
     inkscape:window-y="0"
     inkscape:window-maximized="1" />
  <metadata
     id="metadata5210">
    <rdf:RDF>
      <cc:Work
         rdf:about="">
        <dc:format>image/svg+xml</dc:format>
        <dc:type
           rdf:resource="http://purl.org/dc/dcmitype/StillImage" />
        <dc:title></dc:title>
      </cc:Work>
    </rdf:RDF>
  </metadata>
  <g
     inkscape:label="Layer 1"
     inkscape:groupmode="layer"
     id="layer1"
     transform="translate(0,-286.41665)">
    <g
       aria-label="?"
       style="font-style:normal;font-variant:normal;font-weight:normal;font-stretch:normal;font-size:14.11111069px;line-height:1.25;font-family:'ProFont for Powerline';-inkscape-font-specification:'ProFont for Powerline, Normal';font-variant-ligatures:normal;font-variant-caps:normal;font-variant-numeric:normal;font-feature-settings:normal;text-align:start;letter-spacing:0px;word-spacing:0px;writing-mode:lr-tb;text-anchor:start;fill:#000000;fill-opacity:1;stroke:none;stroke-width:0.26458332"
       id="text9697">
      <path
         d="m 8.2314814,289.94444 q 0,0.58796 -0.2587037,1.08185 l -2.4576851,2.44592 H 4.7037037 v -0.81138 l 2.269537,-2.2813 q 0.082315,-0.17639 0.082315,-0.43509 0,-0.48213 -0.3527778,-0.82315 -0.3410185,-0.35278 -0.8231481,-0.35278 H 4.7037037 q -0.4821296,0 -0.8349074,0.35278 -0.3410185,0.34102 -0.3410185,0.82315 H 2.3518519 q 0,-0.96426 0.6937963,-1.65806 0.6937963,-0.6938 1.6580555,-0.6938 h 1.1759259 q 0.9642592,0 1.6580555,0.6938 0.6937963,0.68204 0.6937963,1.65806 z m -2.3518518,5.29166 q 0,0.24695 -0.1763889,0.42334 -0.1646296,0.16463 -0.411574,0.16463 -0.2469445,0 -0.4233334,-0.16463 -0.1646296,-0.17639 -0.1646296,-0.42334 0,-0.24694 0.1646296,-0.41157 0.1763889,-0.17639 0.4233334,-0.17639 0.2469444,0 0.411574,0.17639 0.1763889,0.16463 0.1763889,0.41157 z"
         style="font-style:normal;font-variant:normal;font-weight:normal;font-stretch:normal;font-size:14.11111069px;font-family:'ProFont for Powerline';-inkscape-font-specification:'ProFont for Powerline, Normal';font-variant-ligatures:normal;font-variant-caps:normal;font-variant-numeric:normal;font-feature-settings:normal;text-align:start;writing-mode:lr-tb;text-anchor:start;stroke-width:0.26458332"
         id="path9828"
         inkscape:connector-curvature="0" />
    </g>
  </g>
</svg>
